<svg id="visual" viewBox="0 0 900 600" width="900" height="600" xmlns="http://www.w3.org/2000/svg" xmlns:xlink="http://www.w3.org/1999/xlink" version="1.1"><rect x="0" y="0" width="900" height="600" fill="#002233"></rect><path d="M0 181L30 184.8C60 188.7 120 196.3 180 237.3C240 278.3 300 352.7 360 365.5C420 378.3 480 329.7 540 303.5C600 277.3 660 273.7 720 289.3C780 305 840 340 870 357.5L900 375L900 601L870 601C840 601 780 601 720 601C660 601 600 601 540 601C480 601 420 601 360 601C300 601 240 601 180 601C120 601 60 601 30 601L0 601Z" fill="#9e00ff" stroke-linecap="round" stroke-linejoin="miter"></path></svg>